<svg xmlns="http://www.w3.org/2000/svg" xmlns:xlink="http://www.w3.org/1999/xlink" xmlns:lucid="lucid" width="1486.76" height="970.68"><g transform="translate(-148.86285023014108 -242.9390832416684)" lucid:page-tab-id="0_0"><path d="M168.86 262.94h1446.77v930.68H168.86z" stroke="#b2b2b2" stroke-width="2" fill="#d0bfe8" fill-opacity=".35"/><path d="M202.14 288.83H617.3v79H202.14z" stroke="#000" stroke-opacity="0" stroke-width="2" fill="#fff" fill-opacity="0"/><use xlink:href="#a" transform="matrix(1,0,0,1,207.14334592233,293.8252599807898) translate(0 53.33333333333334)"/><use xlink:href="#b" transform="matrix(1,0,0,1,207.14334592233,293.8252599807898) translate(133.33333333333334 53.33333333333334)"/><path d="M202.14 399.46h676.04V894H202.14z" stroke="#b2b2b2" stroke-width="2" fill="#a3d977" fill-opacity=".35"/><path d="M226.5 430.34h295.3v54.55H226.5z" stroke="#000" stroke-opacity="0" stroke-width="2" fill="#fff" fill-opacity="0"/><use xlink:href="#c" transform="matrix(1,0,0,1,231.4972067039107,435.34357480885916) translate(0 42.66666666666667)"/><use xlink:href="#d" transform="matrix(1,0,0,1,231.4972067039107,435.34357480885916) translate(106.66666666666669 42.66666666666667)"/><path d="M906.3 399.46h676.04V1167H906.3z" stroke="#b2b2b2" stroke-width="2" fill="#ff8f80" fill-opacity=".35"/><path d="M926.32 430.34h618.24v54.55H926.32z" stroke="#000" stroke-opacity="0" stroke-width="2" fill="#fff" fill-opacity="0"/><use xlink:href="#c" transform="matrix(1,0,0,1,931.3202980506603,435.34357480885916) translate(0 42.66666666666667)"/><use xlink:href="#e" transform="matrix(1,0,0,1,931.3202980506603,435.34357480885916) translate(106.66666666666669 42.66666666666667)"/><use xlink:href="#f" transform="matrix(1,0,0,1,931.3202980506603,435.34357480885916) translate(287.25925925925924 42.66666666666667)"/><path d="M226.5 532.22h577.82V700.5H226.5z" stroke="#b2b2b2" stroke-width="2" fill="#c1e4f7" fill-opacity=".35"/><path d="M226.5 532.22h481.24v202H226.5z" stroke="#000" stroke-opacity="0" stroke-width="2" fill-opacity="0"/><use xlink:href="#g" transform="matrix(1,0,0,1,231.49720670391068,537.2152748036278) translate(0 32)"/><use xlink:href="#h" transform="matrix(1,0,0,1,231.49720670391068,537.2152748036278) translate(0 80)"/><use xlink:href="#i" transform="matrix(1,0,0,1,231.49720670391068,537.2152748036278) translate(103.55555555555557 80)"/><use xlink:href="#j" transform="matrix(1,0,0,1,231.49720670391068,537.2152748036278) translate(152.22222222222223 80)"/><use xlink:href="#k" transform="matrix(1,0,0,1,231.49720670391068,537.2152748036278) translate(0 128)"/><use xlink:href="#l" transform="matrix(1,0,0,1,231.49720670391068,537.2152748036278) translate(97.55555555555557 128)"/><use xlink:href="#m" transform="matrix(1,0,0,1,231.49720670391068,537.2152748036278) translate(179.55555555555557 128)"/><use xlink:href="#n" transform="matrix(1,0,0,1,231.49720670391068,537.2152748036278) translate(272.7777777777778 128)"/><use xlink:href="#o" transform="matrix(1,0,0,1,231.49720670391068,537.2152748036278) translate(321.4444444444445 128)"/><path d="M226.5 745.9h577.82V862.6H226.5z" stroke="#b2b2b2" stroke-width="2" fill="#ffeca9" fill-opacity=".35"/><path d="M226.5 745.9h496.22v154H226.5z" stroke="#000" stroke-opacity="0" stroke-width="2" fill-opacity="0"/><use xlink:href="#h" transform="matrix(1,0,0,1,231.49720670391076,750.9099801687695) translate(0 32)"/><use xlink:href="#p" transform="matrix(1,0,0,1,231.49720670391076,750.9099801687695) translate(103.55555555555557 32)"/><use xlink:href="#q" transform="matrix(1,0,0,1,231.49720670391076,750.9099801687695) translate(0 80)"/><use xlink:href="#r" transform="matrix(1,0,0,1,231.49720670391076,750.9099801687695) translate(199.55555555555557 80)"/><use xlink:href="#s" transform="matrix(1,0,0,1,231.49720670391076,750.9099801687695) translate(292.7777777777778 80)"/><path d="M926.32 512.22h577.82v244.84H926.32z" stroke="#b2b2b2" stroke-width="2" fill="#c1e4f7" fill-opacity=".35"/><path d="M926.32 512.22h481.24v250H926.32z" stroke="#000" stroke-opacity="0" stroke-width="2" fill-opacity="0"/><g><use xlink:href="#t" transform="matrix(1,0,0,1,931.3202980506602,517.2152748036278) translate(0 32)"/><use xlink:href="#u" transform="matrix(1,0,0,1,931.3202980506602,517.2152748036278) translate(0 80)"/><use xlink:href="#v" transform="matrix(1,0,0,1,931.3202980506602,517.2152748036278) translate(0 128)"/><use xlink:href="#w" transform="matrix(1,0,0,1,931.3202980506602,517.2152748036278) translate(0 176)"/><use xlink:href="#x" transform="matrix(1,0,0,1,931.3202980506602,517.2152748036278) translate(0 224)"/></g><path d="M926.32 772.9h577.82v58.45H926.32z" stroke="#b2b2b2" stroke-width="2" fill="#fcc438" fill-opacity=".35"/><path d="M926.32 772.9h481.24v58.45H926.32z" stroke="#000" stroke-opacity="0" stroke-width="2" fill-opacity="0"/><g><use xlink:href="#y" transform="matrix(1,0,0,1,931.3202980506602,777.8951757559462) translate(0 32)"/><use xlink:href="#z" transform="matrix(1,0,0,1,931.3202980506602,777.8951757559462) translate(303.66666666666663 32)"/></g><path d="M926.32 846.8h577.82v100.07H926.32z" stroke="#b2b2b2" stroke-width="2" fill="#3aa6dd" fill-opacity=".35"/><path d="M926.32 846.8h481.24v58.45H926.32z" stroke="#000" stroke-opacity="0" stroke-width="2" fill-opacity="0"/><g><use xlink:href="#A" transform="matrix(1,0,0,1,931.3202980506602,851.7958865715857) translate(0 32)"/><use xlink:href="#B" transform="matrix(1,0,0,1,931.3202980506602,851.7958865715857) translate(95.55555555555556 32)"/></g><path d="M926.32 876.77h187.46v70.1H926.32z" stroke="#000" stroke-opacity="0" stroke-width="2" fill="#fff" fill-opacity="0"/><g><use xlink:href="#C" transform="matrix(1,0,0,1,931.3202980506603,881.7743033153357) translate(0 37.162326388888886)"/></g><path d="M926.32 962.3h577.82v58.47H926.32z" stroke="#b2b2b2" stroke-width="2" fill="#7ab648" fill-opacity=".35"/><path d="M926.32 962.3h481.24v58.47H926.32z" stroke="#000" stroke-opacity="0" stroke-width="2" fill-opacity="0"/><g><use xlink:href="#D" transform="matrix(1,0,0,1,931.3202980506604,967.3124586297148) translate(0 32)"/></g><path d="M926.32 1036.2h577.82v108.4H926.32z" stroke="#b2b2b2" stroke-width="2" fill="#666" fill-opacity=".35"/><path d="M926.32 1036.2h481.24v108.4H926.32z" stroke="#000" stroke-opacity="0" stroke-width="2" fill-opacity="0"/><g><use xlink:href="#E" transform="matrix(1,0,0,1,931.3202980506602,1041.2131694453542) translate(0 32)"/><use xlink:href="#F" transform="matrix(1,0,0,1,931.3202980506602,1041.2131694453542) translate(144.11111111111111 32)"/><use xlink:href="#G" transform="matrix(1,0,0,1,931.3202980506602,1041.2131694453542) translate(250.66666666666669 32)"/><use xlink:href="#H" transform="matrix(1,0,0,1,931.3202980506602,1041.2131694453542) translate(0 80)"/><use xlink:href="#m" transform="matrix(1,0,0,1,931.3202980506602,1041.2131694453542) translate(186.33333333333334 80)"/><use xlink:href="#I" transform="matrix(1,0,0,1,931.3202980506602,1041.2131694453542) translate(279.55555555555554 80)"/></g><defs><path d="M24 0v-248h52V0H24" id="J"/><path d="M169-182c-1-43-94-46-97-3 18 66 151 10 154 114 3 95-165 93-204 36-6-8-10-19-12-30l50-8c3 46 112 56 116 5-17-69-150-10-154-114-4-87 153-88 188-35 5 8 8 18 10 28" id="K"/><path d="M140-251c80 0 125 45 125 126S219 4 139 4C58 4 15-44 15-125s44-126 125-126zm-1 214c52 0 73-35 73-88 0-50-21-86-72-86-52 0-73 35-73 86s22 88 72 88" id="L"/><g id="a"><use transform="matrix(0.1851851851851852,0,0,0.1851851851851852,0,0)" xlink:href="#J"/><use transform="matrix(0.1851851851851852,0,0,0.1851851851851852,18.51851851851852,0)" xlink:href="#K"/><use transform="matrix(0.1851851851851852,0,0,0.1851851851851852,62.96296296296297,0)" xlink:href="#L"/></g><path d="M138-131c27 9 52 24 51 61 0 53-36 74-89 74S11-19 11-69c0-35 22-54 51-61-78-25-46-121 38-121 51 0 83 19 83 66 0 30-18 49-45 54zm-38-16c24 0 32-13 32-36 1-23-11-34-32-34-22 0-33 12-32 34 0 22 9 36 32 36zm1 116c27 0 37-17 37-43 0-25-13-39-39-39-24 0-37 15-37 40 0 27 11 42 39 42" id="M"/><path d="M115-159c48 0 72 30 72 78 0 54-30 85-83 85-64 0-91-50-91-122 0-98 58-163 141-120 15 8 21 24 27 44l-47 6c-5-31-48-31-61-4-7 14-11 33-11 60 9-17 28-27 53-27zM102-35c24 0 36-20 36-45s-11-43-37-43c-23 0-36 14-36 38 0 27 11 50 37 50" id="N"/><path d="M101-251c68 0 84 54 84 127C185-50 166 4 99 4S15-52 14-124c-1-75 17-127 87-127zm-1 216c37-5 36-46 36-89s4-89-36-89c-39 0-36 45-36 89 0 43-3 85 36 89" id="O"/><path d="M23 0v-37h61v-169l-59 37v-38l62-41h46v211h57V0H23" id="P"/><g id="b"><use transform="matrix(0.1851851851851852,0,0,0.1851851851851852,0,0)" xlink:href="#M"/><use transform="matrix(0.1851851851851852,0,0,0.1851851851851852,37.03703703703704,0)" xlink:href="#N"/><use transform="matrix(0.1851851851851852,0,0,0.1851851851851852,74.07407407407408,0)" xlink:href="#O"/><use transform="matrix(0.1851851851851852,0,0,0.1851851851851852,111.11111111111113,0)" xlink:href="#P"/></g><g id="c"><use transform="matrix(0.14814814814814817,0,0,0.14814814814814817,0,0)" xlink:href="#J"/><use transform="matrix(0.14814814814814817,0,0,0.14814814814814817,14.814814814814817,0)" xlink:href="#K"/><use transform="matrix(0.14814814814814817,0,0,0.14814814814814817,50.370370370370374,0)" xlink:href="#L"/></g><path d="M14-72v-43h91v43H14" id="Q"/><g id="d"><use transform="matrix(0.14814814814814817,0,0,0.14814814814814817,0,0)" xlink:href="#M"/><use transform="matrix(0.14814814814814817,0,0,0.14814814814814817,29.629629629629633,0)" xlink:href="#N"/><use transform="matrix(0.14814814814814817,0,0,0.14814814814814817,59.25925925925927,0)" xlink:href="#O"/><use transform="matrix(0.14814814814814817,0,0,0.14814814814814817,88.8888888888889,0)" xlink:href="#P"/><use transform="matrix(0.14814814814814817,0,0,0.14814814814814817,118.51851851851853,0)" xlink:href="#Q"/><use transform="matrix(0.14814814814814817,0,0,0.14814814814814817,136.14814814814815,0)" xlink:href="#P"/></g><path d="M182-182c0 78-84 86-111 141h115V0H12c-6-101 99-100 120-180 1-22-12-31-33-32-23 0-32 14-35 34l-49-3c5-45 32-70 84-70 51 0 83 22 83 69" id="R"/><g id="e"><use transform="matrix(0.14814814814814817,0,0,0.14814814814814817,0,0)" xlink:href="#M"/><use transform="matrix(0.14814814814814817,0,0,0.14814814814814817,29.629629629629633,0)" xlink:href="#N"/><use transform="matrix(0.14814814814814817,0,0,0.14814814814814817,59.25925925925927,0)" xlink:href="#O"/><use transform="matrix(0.14814814814814817,0,0,0.14814814814814817,88.8888888888889,0)" xlink:href="#P"/><use transform="matrix(0.14814814814814817,0,0,0.14814814814814817,118.51851851851853,0)" xlink:href="#Q"/><use transform="matrix(0.14814814814814817,0,0,0.14814814814814817,136.14814814814815,0)" xlink:href="#R"/></g><path d="M67-93c0 74 22 123 53 168H70C40 30 18-18 18-93s22-123 52-168h50c-32 44-53 94-53 168" id="S"/><path d="M185-48c-13 30-37 53-82 52C43 2 14-33 14-96s30-98 90-98c62 0 83 45 84 108H66c0 31 8 55 39 56 18 0 30-7 34-22zm-45-69c5-46-57-63-70-21-2 6-4 13-4 21h74" id="T"/><path d="M144 0l-44-69L55 0H2l70-98-66-92h53l41 62 40-62h54l-67 91 71 99h-54" id="U"/><path d="M115-3C79 11 28 4 28-45v-112H4v-33h27l15-45h31v45h36v33H77v99c-1 23 16 31 38 25v30" id="V"/><path d="M135-194c87-1 58 113 63 194h-50c-7-57 23-157-34-157-59 0-34 97-39 157H25l-1-190h47c2 12-1 28 3 38 12-26 28-41 61-42" id="W"/><path d="M137-138c1-29-70-34-71-4 15 46 118 7 119 86 1 83-164 76-172 9l43-7c4 19 20 25 44 25 33 8 57-30 24-41C81-84 22-81 20-136c-2-80 154-74 161-7" id="X"/><path d="M25-224v-37h50v37H25zM25 0v-190h50V0H25" id="Y"/><path d="M110-194c64 0 96 36 96 99 0 64-35 99-97 99-61 0-95-36-95-99 0-62 34-99 96-99zm-1 164c35 0 45-28 45-65 0-40-10-65-43-65-34 0-45 26-45 65 0 36 10 65 43 65" id="Z"/><path d="M102-93c0 74-22 123-52 168H0C30 29 54-18 53-93c0-74-22-123-53-168h50c30 45 52 94 52 168" id="aa"/><g id="f"><use transform="matrix(0.14814814814814817,0,0,0.14814814814814817,0,0)" xlink:href="#S"/><use transform="matrix(0.14814814814814817,0,0,0.14814814814814817,17.629629629629633,0)" xlink:href="#T"/><use transform="matrix(0.14814814814814817,0,0,0.14814814814814817,47.25925925925927,0)" xlink:href="#U"/><use transform="matrix(0.14814814814814817,0,0,0.14814814814814817,76.8888888888889,0)" xlink:href="#V"/><use transform="matrix(0.14814814814814817,0,0,0.14814814814814817,94.51851851851853,0)" xlink:href="#T"/><use transform="matrix(0.14814814814814817,0,0,0.14814814814814817,124.14814814814817,0)" xlink:href="#W"/><use transform="matrix(0.14814814814814817,0,0,0.14814814814814817,156.5925925925926,0)" xlink:href="#X"/><use transform="matrix(0.14814814814814817,0,0,0.14814814814814817,186.2222222222222,0)" xlink:href="#Y"/><use transform="matrix(0.14814814814814817,0,0,0.14814814814814817,201.03703703703704,0)" xlink:href="#Z"/><use transform="matrix(0.14814814814814817,0,0,0.14814814814814817,233.48148148148147,0)" xlink:href="#W"/><use transform="matrix(0.14814814814814817,0,0,0.14814814814814817,265.9259259259259,0)" xlink:href="#X"/><use transform="matrix(0.14814814814814817,0,0,0.14814814814814817,295.55555555555554,0)" xlink:href="#aa"/></g><path d="M24-248c120-7 223 5 221 122C244-46 201 0 124 0H24v-248zM76-40c74 7 117-18 117-86 0-67-45-88-117-82v168" id="ab"/><path d="M133-34C117-15 103 5 69 4 32 3 11-16 11-54c-1-60 55-63 116-61 1-26-3-47-28-47-18 1-26 9-28 27l-52-2c7-38 36-58 82-57s74 22 75 68l1 82c-1 14 12 18 25 15v27c-30 8-71 5-69-32zm-48 3c29 0 43-24 42-57-32 0-66-3-65 30 0 17 8 27 23 27" id="ac"/><g id="g"><use transform="matrix(0.1111111111111111,0,0,0.1111111111111111,0,0)" xlink:href="#ab"/><use transform="matrix(0.1111111111111111,0,0,0.1111111111111111,28.777777777777775,0)" xlink:href="#ac"/><use transform="matrix(0.1111111111111111,0,0,0.1111111111111111,51,0)" xlink:href="#V"/><use transform="matrix(0.1111111111111111,0,0,0.1111111111111111,64.22222222222223,0)" xlink:href="#T"/></g><path d="M136-208V0H84v-208H4v-40h212v40h-80" id="ad"/><path d="M220-157c-53 9-28 100-34 157h-49v-107c1-27-5-49-29-50C55-147 81-57 75 0H25l-1-190h47c2 12-1 28 3 38 10-53 101-56 108 0 13-22 24-43 59-42 82 1 51 116 57 194h-49v-107c-1-25-5-48-29-50" id="ae"/><g id="h"><use transform="matrix(0.1111111111111111,0,0,0.1111111111111111,0,0)" xlink:href="#ad"/><use transform="matrix(0.1111111111111111,0,0,0.1111111111111111,23.555555555555554,0)" xlink:href="#Y"/><use transform="matrix(0.1111111111111111,0,0,0.1111111111111111,34.666666666666664,0)" xlink:href="#ae"/><use transform="matrix(0.1111111111111111,0,0,0.1111111111111111,70.22222222222223,0)" xlink:href="#T"/></g><path d="M121-226c-27-7-43 5-38 36h38v33H83V0H34v-157H6v-33h28c-9-59 32-81 87-68v32" id="af"/><g id="i"><use transform="matrix(0.1111111111111111,0,0,0.1111111111111111,0,0)" xlink:href="#Z"/><use transform="matrix(0.1111111111111111,0,0,0.1111111111111111,24.333333333333332,0)" xlink:href="#af"/></g><path d="M88-194c31-1 46 15 58 34l-1-101h50l1 261h-48c-2-10 0-23-3-31C134-8 116 4 84 4 32 4 16-41 15-95c0-56 19-97 73-99zm17 164c33 0 40-30 41-66 1-37-9-64-41-64s-38 30-39 65c0 43 13 65 39 65" id="ag"/><path d="M123 10C108 53 80 86 19 72V37c35 8 53-11 59-39L3-190h52l48 148c12-52 28-100 44-148h51" id="ah"/><g id="j"><use transform="matrix(0.1111111111111111,0,0,0.1111111111111111,0,0)" xlink:href="#ag"/><use transform="matrix(0.1111111111111111,0,0,0.1111111111111111,24.333333333333332,0)" xlink:href="#ac"/><use transform="matrix(0.1111111111111111,0,0,0.1111111111111111,46.55555555555556,0)" xlink:href="#ah"/></g><g id="k"><use transform="matrix(0.1111111111111111,0,0,0.1111111111111111,0,0)" xlink:href="#ab"/><use transform="matrix(0.1111111111111111,0,0,0.1111111111111111,28.777777777777775,0)" xlink:href="#ac"/><use transform="matrix(0.1111111111111111,0,0,0.1111111111111111,51,0)" xlink:href="#V"/><use transform="matrix(0.1111111111111111,0,0,0.1111111111111111,64.22222222222223,0)" xlink:href="#T"/></g><g id="l"><use transform="matrix(0.1111111111111111,0,0,0.1111111111111111,0,0)" xlink:href="#ac"/><use transform="matrix(0.1111111111111111,0,0,0.1111111111111111,22.22222222222222,0)" xlink:href="#W"/><use transform="matrix(0.1111111111111111,0,0,0.1111111111111111,46.55555555555556,0)" xlink:href="#ag"/></g><g id="m"><use transform="matrix(0.1111111111111111,0,0,0.1111111111111111,0,0)" xlink:href="#V"/><use transform="matrix(0.1111111111111111,0,0,0.1111111111111111,13.222222222222221,0)" xlink:href="#Y"/><use transform="matrix(0.1111111111111111,0,0,0.1111111111111111,24.333333333333332,0)" xlink:href="#ae"/><use transform="matrix(0.1111111111111111,0,0,0.1111111111111111,59.888888888888886,0)" xlink:href="#T"/></g><g id="n"><use transform="matrix(0.1111111111111111,0,0,0.1111111111111111,0,0)" xlink:href="#Z"/><use transform="matrix(0.1111111111111111,0,0,0.1111111111111111,24.333333333333332,0)" xlink:href="#af"/></g><g id="o"><use transform="matrix(0.1111111111111111,0,0,0.1111111111111111,0,0)" xlink:href="#ag"/><use transform="matrix(0.1111111111111111,0,0,0.1111111111111111,24.333333333333332,0)" xlink:href="#ac"/><use transform="matrix(0.1111111111111111,0,0,0.1111111111111111,46.55555555555556,0)" xlink:href="#ah"/></g><path d="M135-150c-39-12-60 13-60 57V0H25l-1-190h47c2 13-1 29 3 40 6-28 27-53 61-41v41" id="ai"/><path d="M128 0H69L1-190h53L99-40l48-150h52" id="aj"/><path d="M25 0v-261h50V0H25" id="ak"/><g id="p"><use transform="matrix(0.1111111111111111,0,0,0.1111111111111111,0,0)" xlink:href="#Y"/><use transform="matrix(0.1111111111111111,0,0,0.1111111111111111,11.11111111111111,0)" xlink:href="#W"/><use transform="matrix(0.1111111111111111,0,0,0.1111111111111111,35.44444444444444,0)" xlink:href="#V"/><use transform="matrix(0.1111111111111111,0,0,0.1111111111111111,48.666666666666664,0)" xlink:href="#T"/><use transform="matrix(0.1111111111111111,0,0,0.1111111111111111,70.88888888888889,0)" xlink:href="#ai"/><use transform="matrix(0.1111111111111111,0,0,0.1111111111111111,86.44444444444444,0)" xlink:href="#aj"/><use transform="matrix(0.1111111111111111,0,0,0.1111111111111111,108.66666666666666,0)" xlink:href="#ac"/><use transform="matrix(0.1111111111111111,0,0,0.1111111111111111,130.88888888888889,0)" xlink:href="#ak"/></g><path d="M240-174c0 40-23 61-54 70L253 0h-59l-57-94H76V0H24v-248c93 4 217-23 216 74zM76-134c48-2 112 12 112-38 0-48-66-32-112-35v73" id="al"/><path d="M190-63c-7 42-38 67-86 67-59 0-84-38-90-98-12-110 154-137 174-36l-49 2c-2-19-15-32-35-32-30 0-35 28-38 64-6 74 65 87 74 30" id="am"/><path d="M85 4C-2 5 27-109 22-190h50c7 57-23 150 33 157 60-5 35-97 40-157h50l1 190h-47c-2-12 1-28-3-38-12 25-28 42-61 42" id="an"/><path d="M195-6C206 82 75 100 31 46c-4-6-6-13-8-21l49-6c3 16 16 24 34 25 40 0 42-37 40-79-11 22-30 35-61 35-53 0-70-43-70-97 0-56 18-96 73-97 30 0 46 14 59 34l2-30h47zm-90-29c32 0 41-27 41-63 0-35-9-62-40-62-32 0-39 29-40 63 0 36 9 62 39 62" id="ao"/><g id="q"><use transform="matrix(0.1111111111111111,0,0,0.1111111111111111,0,0)" xlink:href="#al"/><use transform="matrix(0.1111111111111111,0,0,0.1111111111111111,28.777777777777775,0)" xlink:href="#T"/><use transform="matrix(0.1111111111111111,0,0,0.1111111111111111,51,0)" xlink:href="#am"/><use transform="matrix(0.1111111111111111,0,0,0.1111111111111111,73.22222222222223,0)" xlink:href="#an"/><use transform="matrix(0.1111111111111111,0,0,0.1111111111111111,97.55555555555556,0)" xlink:href="#ai"/><use transform="matrix(0.1111111111111111,0,0,0.1111111111111111,113.11111111111111,0)" xlink:href="#ai"/><use transform="matrix(0.1111111111111111,0,0,0.1111111111111111,128.66666666666666,0)" xlink:href="#Y"/><use transform="matrix(0.1111111111111111,0,0,0.1111111111111111,139.77777777777777,0)" xlink:href="#W"/><use transform="matrix(0.1111111111111111,0,0,0.1111111111111111,164.11111111111111,0)" xlink:href="#ao"/></g><g id="r"><use transform="matrix(0.1111111111111111,0,0,0.1111111111111111,0,0)" xlink:href="#V"/><use transform="matrix(0.1111111111111111,0,0,0.1111111111111111,13.222222222222221,0)" xlink:href="#Y"/><use transform="matrix(0.1111111111111111,0,0,0.1111111111111111,24.333333333333332,0)" xlink:href="#ae"/><use transform="matrix(0.1111111111111111,0,0,0.1111111111111111,59.888888888888886,0)" xlink:href="#T"/></g><g id="s"><use transform="matrix(0.1111111111111111,0,0,0.1111111111111111,0,0)" xlink:href="#Y"/><use transform="matrix(0.1111111111111111,0,0,0.1111111111111111,11.11111111111111,0)" xlink:href="#W"/><use transform="matrix(0.1111111111111111,0,0,0.1111111111111111,35.44444444444444,0)" xlink:href="#V"/><use transform="matrix(0.1111111111111111,0,0,0.1111111111111111,48.666666666666664,0)" xlink:href="#T"/><use transform="matrix(0.1111111111111111,0,0,0.1111111111111111,70.88888888888889,0)" xlink:href="#ai"/><use transform="matrix(0.1111111111111111,0,0,0.1111111111111111,86.44444444444444,0)" xlink:href="#aj"/><use transform="matrix(0.1111111111111111,0,0,0.1111111111111111,108.66666666666666,0)" xlink:href="#ac"/><use transform="matrix(0.1111111111111111,0,0,0.1111111111111111,130.88888888888889,0)" xlink:href="#ak"/></g><path d="M238-95c0 69-44 99-111 99C63 4 22-25 22-93v-155h51v151c-1 38 19 59 55 60 90 1 49-130 58-211h52v153" id="ap"/><g id="t"><use transform="matrix(0.1111111111111111,0,0,0.1111111111111111,0,0)" xlink:href="#ap"/><use transform="matrix(0.1111111111111111,0,0,0.1111111111111111,28.777777777777775,0)" xlink:href="#W"/><use transform="matrix(0.1111111111111111,0,0,0.1111111111111111,53.11111111111111,0)" xlink:href="#am"/><use transform="matrix(0.1111111111111111,0,0,0.1111111111111111,75.33333333333333,0)" xlink:href="#T"/><use transform="matrix(0.1111111111111111,0,0,0.1111111111111111,97.55555555555554,0)" xlink:href="#ai"/><use transform="matrix(0.1111111111111111,0,0,0.1111111111111111,113.1111111111111,0)" xlink:href="#V"/><use transform="matrix(0.1111111111111111,0,0,0.1111111111111111,126.33333333333333,0)" xlink:href="#ac"/><use transform="matrix(0.1111111111111111,0,0,0.1111111111111111,148.55555555555554,0)" xlink:href="#Y"/><use transform="matrix(0.1111111111111111,0,0,0.1111111111111111,159.66666666666666,0)" xlink:href="#W"/></g><path d="M199 0l-22-63H83L61 0H9l90-248h61L250 0h-51zm-33-102l-36-108c-10 38-24 72-36 108h72" id="aq"/><path d="M135-194c53 0 70 44 70 98 0 56-19 98-73 100-31 1-45-17-59-34 3 33 2 69 2 105H25l-1-265h48c2 10 0 23 3 31 11-24 29-35 60-35zM114-30c33 0 39-31 40-66 0-38-9-64-40-64-56 0-55 130 0 130" id="ar"/><g id="u"><use transform="matrix(0.1111111111111111,0,0,0.1111111111111111,0,0)" xlink:href="#aq"/><use transform="matrix(0.1111111111111111,0,0,0.1111111111111111,28.777777777777775,0)" xlink:href="#ar"/><use transform="matrix(0.1111111111111111,0,0,0.1111111111111111,53.11111111111111,0)" xlink:href="#ar"/><use transform="matrix(0.1111111111111111,0,0,0.1111111111111111,77.44444444444444,0)" xlink:href="#ai"/><use transform="matrix(0.1111111111111111,0,0,0.1111111111111111,93,0)" xlink:href="#Z"/><use transform="matrix(0.1111111111111111,0,0,0.1111111111111111,117.33333333333333,0)" xlink:href="#U"/><use transform="matrix(0.1111111111111111,0,0,0.1111111111111111,139.55555555555554,0)" xlink:href="#Y"/><use transform="matrix(0.1111111111111111,0,0,0.1111111111111111,150.66666666666666,0)" xlink:href="#ae"/><use transform="matrix(0.1111111111111111,0,0,0.1111111111111111,186.22222222222223,0)" xlink:href="#ac"/><use transform="matrix(0.1111111111111111,0,0,0.1111111111111111,208.44444444444446,0)" xlink:href="#V"/><use transform="matrix(0.1111111111111111,0,0,0.1111111111111111,221.66666666666669,0)" xlink:href="#T"/></g><g id="v"><use transform="matrix(0.1111111111111111,0,0,0.1111111111111111,0,0)" xlink:href="#ap"/><use transform="matrix(0.1111111111111111,0,0,0.1111111111111111,28.777777777777775,0)" xlink:href="#W"/><use transform="matrix(0.1111111111111111,0,0,0.1111111111111111,53.11111111111111,0)" xlink:href="#X"/><use transform="matrix(0.1111111111111111,0,0,0.1111111111111111,75.33333333333333,0)" xlink:href="#ar"/><use transform="matrix(0.1111111111111111,0,0,0.1111111111111111,99.66666666666666,0)" xlink:href="#T"/><use transform="matrix(0.1111111111111111,0,0,0.1111111111111111,121.88888888888889,0)" xlink:href="#am"/><use transform="matrix(0.1111111111111111,0,0,0.1111111111111111,144.11111111111111,0)" xlink:href="#Y"/><use transform="matrix(0.1111111111111111,0,0,0.1111111111111111,155.22222222222223,0)" xlink:href="#af"/><use transform="matrix(0.1111111111111111,0,0,0.1111111111111111,168.44444444444446,0)" xlink:href="#Y"/><use transform="matrix(0.1111111111111111,0,0,0.1111111111111111,179.55555555555557,0)" xlink:href="#T"/><use transform="matrix(0.1111111111111111,0,0,0.1111111111111111,201.7777777777778,0)" xlink:href="#ag"/></g><path d="M182-130c37 4 62 22 62 59C244 23 116-4 24 0v-248c84 5 203-23 205 63 0 31-19 50-47 55zM76-148c40-3 101 13 101-30 0-44-60-28-101-31v61zm0 110c48-3 116 14 116-37 0-48-69-32-116-35v72" id="as"/><g id="w"><use transform="matrix(0.1111111111111111,0,0,0.1111111111111111,0,0)" xlink:href="#as"/><use transform="matrix(0.1111111111111111,0,0,0.1111111111111111,28.777777777777775,0)" xlink:href="#T"/><use transform="matrix(0.1111111111111111,0,0,0.1111111111111111,51,0)" xlink:href="#af"/><use transform="matrix(0.1111111111111111,0,0,0.1111111111111111,64.22222222222223,0)" xlink:href="#Z"/><use transform="matrix(0.1111111111111111,0,0,0.1111111111111111,88.55555555555556,0)" xlink:href="#ai"/><use transform="matrix(0.1111111111111111,0,0,0.1111111111111111,104.11111111111111,0)" xlink:href="#T"/></g><g id="x"><use transform="matrix(0.1111111111111111,0,0,0.1111111111111111,0,0)" xlink:href="#aq"/><use transform="matrix(0.1111111111111111,0,0,0.1111111111111111,28.777777777777775,0)" xlink:href="#af"/><use transform="matrix(0.1111111111111111,0,0,0.1111111111111111,42,0)" xlink:href="#V"/><use transform="matrix(0.1111111111111111,0,0,0.1111111111111111,55.22222222222222,0)" xlink:href="#T"/><use transform="matrix(0.1111111111111111,0,0,0.1111111111111111,77.44444444444444,0)" xlink:href="#ai"/></g><path d="M147 0L96-86 75-71V0H25v-261h50v150l67-79h53l-66 74L201 0h-54" id="at"/><path d="M231 0h-52l-39-155L100 0H48L-1-190h46L77-45c9-52 24-97 36-145h53l37 145 32-145h46" id="au"/><path d="M4 7l51-268h42L46 7H4" id="av"/><g id="y"><use transform="matrix(0.1111111111111111,0,0,0.1111111111111111,0,0)" xlink:href="#ap"/><use transform="matrix(0.1111111111111111,0,0,0.1111111111111111,28.777777777777775,0)" xlink:href="#W"/><use transform="matrix(0.1111111111111111,0,0,0.1111111111111111,53.11111111111111,0)" xlink:href="#at"/><use transform="matrix(0.1111111111111111,0,0,0.1111111111111111,75.33333333333333,0)" xlink:href="#W"/><use transform="matrix(0.1111111111111111,0,0,0.1111111111111111,99.66666666666666,0)" xlink:href="#Z"/><use transform="matrix(0.1111111111111111,0,0,0.1111111111111111,124,0)" xlink:href="#au"/><use transform="matrix(0.1111111111111111,0,0,0.1111111111111111,155.1111111111111,0)" xlink:href="#W"/><use transform="matrix(0.1111111111111111,0,0,0.1111111111111111,179.44444444444443,0)" xlink:href="#av"/><use transform="matrix(0.1111111111111111,0,0,0.1111111111111111,190.55555555555554,0)" xlink:href="#L"/><use transform="matrix(0.1111111111111111,0,0,0.1111111111111111,221.66666666666666,0)" xlink:href="#ar"/><use transform="matrix(0.1111111111111111,0,0,0.1111111111111111,246,0)" xlink:href="#T"/><use transform="matrix(0.1111111111111111,0,0,0.1111111111111111,268.22222222222223,0)" xlink:href="#W"/></g><g id="z"><use transform="matrix(0.1111111111111111,0,0,0.1111111111111111,0,0)" xlink:href="#Y"/><use transform="matrix(0.1111111111111111,0,0,0.1111111111111111,11.11111111111111,0)" xlink:href="#W"/><use transform="matrix(0.1111111111111111,0,0,0.1111111111111111,35.44444444444444,0)" xlink:href="#V"/><use transform="matrix(0.1111111111111111,0,0,0.1111111111111111,48.666666666666664,0)" xlink:href="#T"/><use transform="matrix(0.1111111111111111,0,0,0.1111111111111111,70.88888888888889,0)" xlink:href="#ai"/><use transform="matrix(0.1111111111111111,0,0,0.1111111111111111,86.44444444444444,0)" xlink:href="#aj"/><use transform="matrix(0.1111111111111111,0,0,0.1111111111111111,108.66666666666666,0)" xlink:href="#ac"/><use transform="matrix(0.1111111111111111,0,0,0.1111111111111111,130.88888888888889,0)" xlink:href="#ak"/></g><path d="M146-102V0H94v-102L6-248h54l60 105 60-105h54" id="aw"/><g id="A"><use transform="matrix(0.1111111111111111,0,0,0.1111111111111111,0,0)" xlink:href="#aw"/><use transform="matrix(0.1111111111111111,0,0,0.1111111111111111,24.444444444444443,0)" xlink:href="#T"/><use transform="matrix(0.1111111111111111,0,0,0.1111111111111111,46.666666666666664,0)" xlink:href="#ac"/><use transform="matrix(0.1111111111111111,0,0,0.1111111111111111,68.88888888888889,0)" xlink:href="#ai"/></g><g id="B"><use transform="matrix(0.1111111111111111,0,0,0.1111111111111111,0,0)" xlink:href="#ag"/><use transform="matrix(0.1111111111111111,0,0,0.1111111111111111,24.333333333333332,0)" xlink:href="#T"/><use transform="matrix(0.1111111111111111,0,0,0.1111111111111111,46.55555555555556,0)" xlink:href="#X"/><use transform="matrix(0.1111111111111111,0,0,0.1111111111111111,68.77777777777777,0)" xlink:href="#Y"/><use transform="matrix(0.1111111111111111,0,0,0.1111111111111111,79.88888888888889,0)" xlink:href="#ao"/><use transform="matrix(0.1111111111111111,0,0,0.1111111111111111,104.22222222222221,0)" xlink:href="#W"/><use transform="matrix(0.1111111111111111,0,0,0.1111111111111111,128.55555555555554,0)" xlink:href="#ac"/><use transform="matrix(0.1111111111111111,0,0,0.1111111111111111,150.77777777777777,0)" xlink:href="#V"/><use transform="matrix(0.1111111111111111,0,0,0.1111111111111111,164,0)" xlink:href="#Z"/><use transform="matrix(0.1111111111111111,0,0,0.1111111111111111,188.33333333333334,0)" xlink:href="#ai"/></g><path d="M761-556V0H467v-556L3-1349h309l300 566 304-566h309" id="ax"/><path d="M410 425v-1909h547v139H590V286h367v139H410" id="ay"/><path d="M324-409v-244h580v244H324" id="az"/><path d="M270 425V286h367v-1631H270v-139h547V425H270" id="aA"/><path d="M708-584V0H520v-584L36-1349h205l374 611 372-611h205" id="aB"/><path d="M1576 0v-216h193V0h-193zM927 0v-216h193V0H927zM279 0v-216h193V0H279" id="aC"/><g id="C"><use transform="matrix(0.010850694444444444,0,0,0.010850694444444444,0,0)" xlink:href="#ax"/><use transform="matrix(0.010850694444444444,0,0,0.010850694444444444,13.335503472222221,0)" xlink:href="#ay"/><use transform="matrix(0.010850694444444444,0,0,0.010850694444444444,26.671006944444443,0)" xlink:href="#az"/><use transform="matrix(0.010850694444444444,0,0,0.010850694444444444,40.006510416666664,0)" xlink:href="#aA"/><use transform="matrix(0.010850694444444444,0,0,0.010850694444444444,53.342013888888886,0)" xlink:href="#aB"/><use transform="matrix(0.010850694444444444,0,0,0.010850694444444444,66.67751736111111,0)" xlink:href="#aB"/><use transform="matrix(0.010850694444444444,0,0,0.010850694444444444,80.01302083333334,0)" xlink:href="#aB"/><use transform="matrix(0.010850694444444444,0,0,0.010850694444444444,93.34852430555557,0)" xlink:href="#aB"/><use transform="matrix(0.010850694444444444,0,0,0.010850694444444444,106.6840277777778,0)" xlink:href="#aC"/></g><g id="D"><use transform="matrix(0.1111111111111111,0,0,0.1111111111111111,0,0)" xlink:href="#ab"/><use transform="matrix(0.1111111111111111,0,0,0.1111111111111111,28.777777777777775,0)" xlink:href="#T"/><use transform="matrix(0.1111111111111111,0,0,0.1111111111111111,51,0)" xlink:href="#am"/><use transform="matrix(0.1111111111111111,0,0,0.1111111111111111,73.22222222222223,0)" xlink:href="#ac"/><use transform="matrix(0.1111111111111111,0,0,0.1111111111111111,95.44444444444446,0)" xlink:href="#ag"/><use transform="matrix(0.1111111111111111,0,0,0.1111111111111111,119.7777777777778,0)" xlink:href="#T"/></g><g id="E"><use transform="matrix(0.1111111111111111,0,0,0.1111111111111111,0,0)" xlink:href="#al"/><use transform="matrix(0.1111111111111111,0,0,0.1111111111111111,28.777777777777775,0)" xlink:href="#T"/><use transform="matrix(0.1111111111111111,0,0,0.1111111111111111,51,0)" xlink:href="#ar"/><use transform="matrix(0.1111111111111111,0,0,0.1111111111111111,75.33333333333333,0)" xlink:href="#T"/><use transform="matrix(0.1111111111111111,0,0,0.1111111111111111,97.55555555555554,0)" xlink:href="#ac"/><use transform="matrix(0.1111111111111111,0,0,0.1111111111111111,119.77777777777777,0)" xlink:href="#V"/></g><g id="F"><use transform="matrix(0.1111111111111111,0,0,0.1111111111111111,0,0)" xlink:href="#ai"/><use transform="matrix(0.1111111111111111,0,0,0.1111111111111111,15.555555555555555,0)" xlink:href="#an"/><use transform="matrix(0.1111111111111111,0,0,0.1111111111111111,39.888888888888886,0)" xlink:href="#ak"/><use transform="matrix(0.1111111111111111,0,0,0.1111111111111111,51,0)" xlink:href="#T"/><use transform="matrix(0.1111111111111111,0,0,0.1111111111111111,73.22222222222223,0)" xlink:href="#X"/></g><g id="G"><use transform="matrix(0.1111111111111111,0,0,0.1111111111111111,0,0)" xlink:href="#af"/><use transform="matrix(0.1111111111111111,0,0,0.1111111111111111,13.222222222222221,0)" xlink:href="#Z"/><use transform="matrix(0.1111111111111111,0,0,0.1111111111111111,37.55555555555556,0)" xlink:href="#ai"/></g><g id="H"><use transform="matrix(0.1111111111111111,0,0,0.1111111111111111,0,0)" xlink:href="#ai"/><use transform="matrix(0.1111111111111111,0,0,0.1111111111111111,15.555555555555555,0)" xlink:href="#T"/><use transform="matrix(0.1111111111111111,0,0,0.1111111111111111,37.77777777777778,0)" xlink:href="#am"/><use transform="matrix(0.1111111111111111,0,0,0.1111111111111111,60,0)" xlink:href="#an"/><use transform="matrix(0.1111111111111111,0,0,0.1111111111111111,84.33333333333333,0)" xlink:href="#ai"/><use transform="matrix(0.1111111111111111,0,0,0.1111111111111111,99.88888888888889,0)" xlink:href="#ai"/><use transform="matrix(0.1111111111111111,0,0,0.1111111111111111,115.44444444444444,0)" xlink:href="#Y"/><use transform="matrix(0.1111111111111111,0,0,0.1111111111111111,126.55555555555554,0)" xlink:href="#W"/><use transform="matrix(0.1111111111111111,0,0,0.1111111111111111,150.88888888888889,0)" xlink:href="#ao"/></g><g id="I"><use transform="matrix(0.1111111111111111,0,0,0.1111111111111111,0,0)" xlink:href="#Y"/><use transform="matrix(0.1111111111111111,0,0,0.1111111111111111,11.11111111111111,0)" xlink:href="#W"/><use transform="matrix(0.1111111111111111,0,0,0.1111111111111111,35.44444444444444,0)" xlink:href="#V"/><use transform="matrix(0.1111111111111111,0,0,0.1111111111111111,48.666666666666664,0)" xlink:href="#T"/><use transform="matrix(0.1111111111111111,0,0,0.1111111111111111,70.88888888888889,0)" xlink:href="#ai"/><use transform="matrix(0.1111111111111111,0,0,0.1111111111111111,86.44444444444444,0)" xlink:href="#aj"/><use transform="matrix(0.1111111111111111,0,0,0.1111111111111111,108.66666666666666,0)" xlink:href="#ac"/><use transform="matrix(0.1111111111111111,0,0,0.1111111111111111,130.88888888888889,0)" xlink:href="#ak"/><use transform="matrix(0.1111111111111111,0,0,0.1111111111111111,142,0)" xlink:href="#X"/></g></defs></g></svg>